<svg width="18" height="18" viewBox="0 0 18 18" fill="none" xmlns="http://www.w3.org/2000/svg">
<path d="M6.02056 14.1315C6.02056 14.204 5.9371 14.2621 5.83185 14.2621C5.7121 14.273 5.62863 14.2149 5.62863 14.1315C5.62863 14.0589 5.7121 14.0008 5.81734 14.0008C5.92621 13.9899 6.02056 14.048 6.02056 14.1315ZM4.89194 13.9681C4.86653 14.0407 4.93911 14.1242 5.04798 14.146C5.14234 14.1823 5.25121 14.146 5.27298 14.0734C5.29476 14.0008 5.22581 13.9173 5.11694 13.8847C5.02258 13.8593 4.91734 13.8956 4.89194 13.9681ZM6.49597 13.9065C6.39073 13.9319 6.31814 14.0008 6.32903 14.0843C6.33992 14.1569 6.43427 14.204 6.54315 14.1786C6.64839 14.1532 6.72097 14.0843 6.71008 14.0117C6.69919 13.9427 6.60121 13.8956 6.49597 13.9065ZM8.88387 0C3.8504 0 0 3.82137 0 8.85484C0 12.8794 2.53306 16.3234 6.15121 17.5355C6.61573 17.619 6.77903 17.3323 6.77903 17.0964C6.77903 16.8714 6.76815 15.6302 6.76815 14.8681C6.76815 14.8681 4.22782 15.4125 3.69435 13.7867C3.69435 13.7867 3.28065 12.7306 2.68548 12.4585C2.68548 12.4585 1.85444 11.8887 2.74355 11.8996C2.74355 11.8996 3.64718 11.9722 4.14435 12.8359C4.93911 14.2367 6.27097 13.8339 6.78992 13.5944C6.87339 13.0137 7.10927 12.6109 7.37056 12.3714C5.34194 12.1464 3.29516 11.8524 3.29516 8.36129C3.29516 7.36331 3.57097 6.8625 4.15161 6.22379C4.05726 5.9879 3.74879 5.01532 4.24597 3.75968C5.00444 3.52379 6.75 4.73952 6.75 4.73952C7.47581 4.53629 8.25605 4.43105 9.02903 4.43105C9.80202 4.43105 10.5823 4.53629 11.3081 4.73952C11.3081 4.73952 13.0536 3.52016 13.8121 3.75968C14.3093 5.01895 14.0008 5.9879 13.9065 6.22379C14.4871 6.86613 14.8427 7.36694 14.8427 8.36129C14.8427 11.8633 12.7052 12.1427 10.6766 12.3714C11.0105 12.6581 11.2935 13.2024 11.2935 14.0552C11.2935 15.2782 11.2827 16.7915 11.2827 17.0891C11.2827 17.325 11.4496 17.6117 11.9105 17.5282C15.5395 16.3234 18 12.8794 18 8.85484C18 3.82137 13.9173 0 8.88387 0ZM3.52742 12.5165C3.48024 12.5528 3.49113 12.6363 3.55282 12.7052C3.61089 12.7633 3.69435 12.7887 3.74153 12.7415C3.78871 12.7052 3.77782 12.6218 3.71613 12.5528C3.65806 12.4948 3.5746 12.4694 3.52742 12.5165ZM3.13548 12.2226C3.11008 12.2698 3.14637 12.3278 3.21895 12.3641C3.27702 12.4004 3.3496 12.3895 3.375 12.3387C3.4004 12.2915 3.36411 12.2335 3.29153 12.1972C3.21895 12.1754 3.16089 12.1863 3.13548 12.2226ZM4.31129 13.5145C4.25323 13.5617 4.275 13.6706 4.35847 13.7395C4.44194 13.823 4.54718 13.8339 4.59435 13.7758C4.64153 13.7286 4.61976 13.6198 4.54718 13.5508C4.46734 13.4673 4.35847 13.4565 4.31129 13.5145ZM3.89758 12.981C3.83952 13.0173 3.83952 13.1117 3.89758 13.1952C3.95565 13.2786 4.05363 13.3149 4.10081 13.2786C4.15887 13.2315 4.15887 13.1371 4.10081 13.0536C4.05 12.9702 3.95565 12.9339 3.89758 12.981Z" fill="#333333"/>
</svg>
